<mxfile host="app.diagrams.net" agent="Mozilla/5.0 (Windows NT 10.0; Win64; x64; rv:137.0) Gecko/20100101 Firefox/137.0" version="27.1.1">
  <diagram name="Страница — 1" id="sZtB1Q5057Dz1Q6I5SsG">
    <mxGraphModel dx="2431" dy="1316" grid="1" gridSize="10" guides="1" tooltips="1" connect="1" arrows="1" fold="1" page="1" pageScale="1" pageWidth="827" pageHeight="1169" math="0" shadow="0">
      <root>
        <mxCell id="0" />
        <mxCell id="1" parent="0" />
        <mxCell id="Jur1lE8EiySAiAvcC06m-2" value="Клиенткое устройство" style="verticalAlign=top;align=left;spacingTop=8;spacingLeft=2;spacingRight=12;shape=cube;size=10;direction=south;fontStyle=4;html=1;whiteSpace=wrap;" vertex="1" parent="1">
          <mxGeometry x="170" y="140" width="180" height="120" as="geometry" />
        </mxCell>
        <mxCell id="Jur1lE8EiySAiAvcC06m-3" value="веб-сервер" style="verticalAlign=top;align=left;spacingTop=8;spacingLeft=2;spacingRight=12;shape=cube;size=10;direction=south;fontStyle=4;html=1;whiteSpace=wrap;" vertex="1" parent="1">
          <mxGeometry x="170" y="300" width="180" height="120" as="geometry" />
        </mxCell>
        <mxCell id="Jur1lE8EiySAiAvcC06m-4" value="База данных" style="verticalAlign=top;align=left;spacingTop=8;spacingLeft=2;spacingRight=12;shape=cube;size=10;direction=south;fontStyle=4;html=1;whiteSpace=wrap;" vertex="1" parent="1">
          <mxGeometry x="440" y="300" width="180" height="120" as="geometry" />
        </mxCell>
        <mxCell id="Jur1lE8EiySAiAvcC06m-5" value="Рабочая станция" style="verticalAlign=top;align=left;spacingTop=8;spacingLeft=2;spacingRight=12;shape=cube;size=10;direction=south;fontStyle=4;html=1;whiteSpace=wrap;" vertex="1" parent="1">
          <mxGeometry x="170" y="480" width="180" height="120" as="geometry" />
        </mxCell>
        <mxCell id="Jur1lE8EiySAiAvcC06m-8" value="" style="endArrow=none;html=1;rounded=0;entryX=0;entryY=0;entryDx=120;entryDy=95;entryPerimeter=0;exitX=0.014;exitY=0.531;exitDx=0;exitDy=0;exitPerimeter=0;" edge="1" parent="1" source="Jur1lE8EiySAiAvcC06m-3" target="Jur1lE8EiySAiAvcC06m-2">
          <mxGeometry width="50" height="50" relative="1" as="geometry">
            <mxPoint x="100" y="350" as="sourcePoint" />
            <mxPoint x="150" y="300" as="targetPoint" />
          </mxGeometry>
        </mxCell>
        <mxCell id="Jur1lE8EiySAiAvcC06m-9" value="" style="endArrow=none;html=1;rounded=0;entryX=1.014;entryY=0.472;entryDx=0;entryDy=0;entryPerimeter=0;exitX=0;exitY=0;exitDx=0;exitDy=85;exitPerimeter=0;" edge="1" parent="1" source="Jur1lE8EiySAiAvcC06m-5" target="Jur1lE8EiySAiAvcC06m-3">
          <mxGeometry width="50" height="50" relative="1" as="geometry">
            <mxPoint x="320" y="392" as="sourcePoint" />
            <mxPoint x="321" y="350" as="targetPoint" />
          </mxGeometry>
        </mxCell>
        <mxCell id="Jur1lE8EiySAiAvcC06m-11" value="" style="endArrow=none;html=1;rounded=0;entryX=0;entryY=0;entryDx=55;entryDy=0;entryPerimeter=0;exitX=0.465;exitY=1.011;exitDx=0;exitDy=0;exitPerimeter=0;" edge="1" parent="1" source="Jur1lE8EiySAiAvcC06m-4" target="Jur1lE8EiySAiAvcC06m-3">
          <mxGeometry width="50" height="50" relative="1" as="geometry">
            <mxPoint x="540" y="560" as="sourcePoint" />
            <mxPoint x="450" y="550" as="targetPoint" />
            <Array as="points" />
          </mxGeometry>
        </mxCell>
        <mxCell id="Jur1lE8EiySAiAvcC06m-12" value="Компьютер" style="text;html=1;align=center;verticalAlign=middle;whiteSpace=wrap;rounded=0;" vertex="1" parent="1">
          <mxGeometry x="176" y="184" width="60" height="30" as="geometry" />
        </mxCell>
        <mxCell id="Jur1lE8EiySAiAvcC06m-13" value="&lt;div align=&quot;left&quot;&gt;сервер, обрабатывающий бизнес-логику и API&lt;/div&gt;" style="text;html=1;align=left;verticalAlign=middle;whiteSpace=wrap;rounded=0;" vertex="1" parent="1">
          <mxGeometry x="171" y="350" width="160" height="30" as="geometry" />
        </mxCell>
        <mxCell id="Jur1lE8EiySAiAvcC06m-14" value="&lt;div align=&quot;left&quot;&gt;сервер, хранящий данные&lt;/div&gt;" style="text;html=1;align=left;verticalAlign=middle;whiteSpace=wrap;rounded=0;" vertex="1" parent="1">
          <mxGeometry x="440" y="350" width="160" height="30" as="geometry" />
        </mxCell>
        <mxCell id="Jur1lE8EiySAiAvcC06m-15" value="HTTP" style="text;html=1;align=center;verticalAlign=middle;whiteSpace=wrap;rounded=0;" vertex="1" parent="1">
          <mxGeometry x="221" y="270" width="60" height="30" as="geometry" />
        </mxCell>
        <mxCell id="Jur1lE8EiySAiAvcC06m-16" value="HTTP" style="text;html=1;align=center;verticalAlign=middle;whiteSpace=wrap;rounded=0;" vertex="1" parent="1">
          <mxGeometry x="236" y="440" width="60" height="30" as="geometry" />
        </mxCell>
        <mxCell id="Jur1lE8EiySAiAvcC06m-17" value="SQL" style="text;html=1;align=center;verticalAlign=middle;whiteSpace=wrap;rounded=0;" vertex="1" parent="1">
          <mxGeometry x="360" y="330" width="60" height="30" as="geometry" />
        </mxCell>
      </root>
    </mxGraphModel>
  </diagram>
</mxfile>
